PathFileType	4	(X/Y/Z)	C:\Users\°ÂÌØÂü\Desktop\20210112\bx_n_0_901-Unnamed.trc
DataRate	CameraRate	NumFrames	NumMarkers	Units	OrigDataRate	OrigDataStartFrame	OrigNumFrames
50.00	50.00	       7	0	mm	50.00	324	       370
Frame#	Time	
		

324	6.460	-676.03754	168.23576	160.57845	-718.97668	68.11868	217.04617	-606.10028	226.19383	795.41675	-608.62555	-1.04777	809.44641	-700.93475	293.47400	874.82324	-716.14221	-69.84591	1539.68347	-607.53082	115.11873	1363.56409	-706.56500	277.99832	744.14807	-741.76624	262.14468	641.25531	-700.63440	76.44779	574.51514	-621.45184	247.96292	1067.35449	-672.58502	16.73765	522.07361	-737.57098	255.11391	575.78784	-685.74023	209.82845	535.78876	-773.80682	266.61963	500.22736	-622.47668	1.16463	1057.97559	-648.02966	-67.78659	162.05286	-714.42542	153.43129	219.13177	-765.69000	230.62929	204.45454	-606.24286	-72.18449	158.02684	-882.50555	296.12280	144.80435	-675.40601	51.83044	161.26668	-600.98669	26.30010	169.35269	-549.68097	-25.29292	163.94220	-517.83282	-72.87903	143.14296	-590.17627	208.44069	174.17859	-652.17920	291.58258	156.85724	-615.09412	297.31506	158.36729	-553.41327	242.80991	165.96606	-527.94629	303.84424	146.62753	-752.04089	113.10744	1856.22803	-796.50153	182.32689	184.16713	-724.28284	294.53394	1538.62695	-793.51428	37.49483	173.74779	-823.78149	108.56293	1062.68140	-764.94269	-42.53748	489.45663	-759.64136	-21.66035	207.72134	-875.95648	-78.79716	141.44162	-705.99072	150.25307	576.43201	-703.01917	-56.25561	760.93658	-718.09387	-32.05522	618.06982	-723.23212	-30.24056	571.08978				-687.32544	-67.43517	877.34436	
325	6.480	-675.64252	168.11205	160.46609	-719.33807	68.09370	216.93777	-605.17334	225.61400	795.61621	-608.09973	-1.45958	809.11023	-699.88361	293.63977	875.18317	-717.58228	-70.10646	1539.63257	-607.96082	114.73836	1363.92957	-705.81586	277.85056	744.75598	-741.13782	261.73318	641.24475	-700.42609	75.86005	574.36969	-620.68524	247.19060	1067.17334	-672.10785	16.69864	522.11584	-736.51233	254.90118	575.65717	-685.29968	209.57828	535.60687	-773.30072	266.17755	500.37961	-622.07599	0.80124	1057.85254	-647.93469	-67.86562	162.20204	-714.34497	153.39828	219.05331	-765.55719	230.45651	204.28200	-606.24286	-72.18449	158.02684	-882.60834	296.06894	144.52896	-675.44830	51.95157	161.16556	-600.90863	26.42319	169.38087	-549.66974	-25.23613	164.10622	-517.81085	-72.96118	143.22667	-590.04718	208.33264	174.22575	-652.28497	291.77179	156.69199	-615.17859	297.44870	158.52078	-553.50690	242.82217	166.10747	-528.07727	303.97675	146.51949	-754.00092	112.78706	1856.00049	-796.45764	182.37836	184.22295	-725.52246	294.04800	1538.42505	-793.20746	37.10805	173.75293	-823.14636	108.06690	1062.29358	-764.44794	-42.77224	489.54556	-759.50458	-21.68787	207.63431	-875.77911	-78.72020	141.34023	-705.15149	150.02916	575.81067	-702.72186	-56.80283	761.05353	-717.33716	-32.25372	617.90320	-723.00861	-30.51961	570.93878				-686.19025	-67.95164	876.93512	
326	6.500	-675.65521	167.89275	160.73018	-719.19293	67.99223	217.04308	-604.36493	225.09512	795.63452	-607.41791	-1.66687	809.11047	-699.03131	292.53207	874.61047	-718.92407	-70.90415	1539.36987	-608.47998	114.08485	1364.15356	-704.98291	277.56085	744.98260	-740.42621	261.51834	641.60089	-700.08972	76.09625	574.30280	-620.18738	246.45340	1067.03613	-671.80695	16.49237	521.81671	-735.91473	254.45898	575.86188	-684.68335	209.08847	535.75848	-772.63879	265.93457	500.40442	-621.55780	-0.15615	1057.79443	-647.89856	-67.80270	162.05057	-714.24988	153.45076	218.95605	-765.71478	230.56544	204.82076	-606.18604	-72.17168	158.09999	-882.39606	296.09891	144.73637	-675.42615	51.90094	161.20161	-600.74554	26.51340	169.50839	-549.76343	-25.21327	164.15259	-517.83282	-72.87903	143.14296	-590.04718	208.33264	174.22575	-652.17920	291.51770	156.96675	-615.23779	297.30573	158.53247	-553.50043	242.70708	166.05438	-528.11023	304.21655	146.67133	-756.00494	112.69408	1855.72363	-796.31866	182.29517	183.89156	-726.80542	293.80865	1538.11719	-793.58771	37.13577	174.30905	-822.48779	107.39889	1061.95020	-764.06042	-43.09187	489.24075	-759.42566	-21.84311	207.63197	-876.03687	-78.90970	141.42259	-704.19666	150.10916	575.88312	-701.36249	-56.69225	760.82831	-716.76080	-32.72886	617.82526	-722.39886	-30.88372	570.44946				-685.19391	-68.51366	877.03674	
327	6.520	-675.92847	168.12489	160.66566	-719.20776	68.11900	216.85371	-603.67242	224.70074	795.35248	-606.60590	-1.74173	809.09332	-698.08698	292.56152	874.56030	-720.29315	-70.92400	1539.21411	-608.97510	113.67880	1364.50415	-704.05194	276.81415	744.48547	-739.64221	261.08618	641.64508	-700.00952	75.64788	574.20813	-619.33160	245.92914	1067.50928	-671.18958	16.49763	521.86682	-735.43427	254.06747	575.68994	-684.30286	208.95776	535.78192	-772.36786	265.73718	500.56461	-620.64905	-0.80346	1057.83459	-648.23529	-67.90040	161.74149	-714.27216	153.33940	218.81319	-765.67987	230.34636	204.60129	-605.96844	-71.84977	158.08655	-882.45593	296.22400	144.77756	-675.32758	52.10737	161.24651	-601.24060	26.71036	169.30951	-549.58893	-25.06091	164.16016	-517.79498	-72.90541	143.13284	-589.95825	208.24236	174.17738	-652.23108	291.20474	157.01859	-615.29773	297.20776	158.45454	-553.50690	242.82217	166.10747	-528.30536	304.04300	146.37025	-757.97522	112.39023	1855.50854	-796.26764	182.32034	183.94670	-727.96332	293.39035	1537.75879	-793.58429	37.28396	173.87039	-821.81451	106.91143	1061.80652	-763.59570	-43.47543	489.03970	-759.29132	-21.97041	207.64952	-875.92981	-78.86195	141.39522	-703.47107	149.66341	576.60724	-700.57495	-57.61604	760.92480	-716.39539	-33.19276	617.91620	-721.50159	-31.01847	570.49292				-684.50739	-68.68405	876.87531	
328	6.540	-675.61218	167.81088	160.21587	-719.33807	68.09370	216.93777	-603.02753	223.96597	795.34656	-606.01746	-1.69207	808.95483	-697.01843	292.54883	875.31061	-721.70819	-71.37773	1539.48596	-609.55750	113.45110	1364.64404	-703.27814	276.51181	744.73053	-738.85565	260.50601	641.34277				-618.85913	245.46088	1067.26013	-670.60107	16.22653	521.72931	-734.98108	253.39709	575.63556	-683.63843	208.46642	535.46436	-771.60889	265.16086	500.62158	-619.87909	-0.95264	1058.06860	-648.03809	-67.86852	161.71373	-714.19940	152.93509	218.81383	-765.63513	230.23618	204.79521	-606.14642	-72.09901	158.37810	-882.47034	296.07187	144.68552	-675.26978	51.71571	161.15344	-600.85687	26.66576	169.35080	-549.58942	-24.72078	164.23648	-517.83282	-72.87903	143.14296	-589.97571	208.28226	174.16643	-652.18860	291.18176	157.06563	-615.29150	297.14658	158.52592	-553.43945	242.78915	166.03453	-528.10010	303.99414	146.64998	-759.90137	112.35963	1855.25110	-796.46356	182.31197	184.27446	-729.29315	293.06076	1537.37598	-793.54016	37.33504	173.78175	-821.29584	106.65322	1061.71362	-762.77740	-43.92112	489.10126	-759.22729	-22.09599	207.57176	-876.03687	-78.90970	141.42259	-704.09308	148.76112	576.54553	-700.19067	-57.26175	760.53302	-715.61169	-33.61950	618.05383	-720.62939	-31.21902	570.51605	-699.61554	75.25871	574.13574	-683.74695	-69.14966	876.71265	
329	6.560	-675.54614	167.72594	160.07425	-719.33807	68.09370	216.93777	-602.50397	223.39310	795.04352	-605.14594	-2.01761	808.74377	-696.63702	292.07642	874.91168	-723.20819	-71.48838	1539.39746	-610.01898	112.79472	1365.02966	-702.59607	276.48016	744.56281	-737.57574	260.24353	641.50653				-617.73999	244.85767	1067.76660	-670.31891	15.79368	521.50684	-734.19672	252.96994	575.61920	-682.96674	208.09689	535.64862	-770.92792	264.63138	500.42755	-619.85303	-1.37833	1057.95801	-647.89856	-67.80270	162.05057	-714.49890	152.93706	218.58661	-765.62860	230.10722	204.83229	-606.17999	-72.09863	158.39055	-882.57434	296.15549	144.64362	-675.46851	52.02207	161.10049	-600.90955	26.62404	169.48055	-549.59857	-24.95349	164.29045	-517.76477	-72.90109	143.26227	-589.78387	208.15521	174.12898	-652.17352	291.08014	156.82973	-615.14783	297.01553	158.50366	-553.39575	242.69188	166.15335	-528.19720	304.25613	146.56464	-761.47528	112.14486	1855.03503	-796.46356	182.31197	184.27446	-730.35168	292.74475	1537.06641	-793.35004	36.79348	173.81509	-820.98035	106.21809	1061.39465	-762.41895	-44.08937	489.17780	-759.23584	-22.03306	207.60725	-875.95648	-78.79716	141.44162	-703.00928	148.23125	576.46674	-699.84106	-57.20518	759.94202	-715.06964	-33.86782	617.99146	-720.34546	-31.49226	570.43530	-698.94946	74.87226	574.20660	-683.02356	-69.59081	876.69733	
330	6.580	-675.69049	167.31349	159.58199	-718.99164	67.99162	216.87766	-601.99500	223.11574	795.13501	-604.56067	-2.29271	808.80438	-696.06403	291.22882	874.82343	-724.36536	-72.10287	1539.32361	-610.33868	112.43781	1365.15967	-701.75769	276.04636	744.58289	-737.28168	260.15292	641.59009				-617.54059	244.50169	1067.68726	-669.71051	15.74445	521.39343	-733.58118	252.95979	576.04376	-682.36346	207.87804	535.50604	-770.56366	264.70313	500.57458	-619.22882	-2.27094	1058.13574	-648.06177	-67.81869	162.10641	-714.30914	152.75815	218.57326	-765.51593	229.98039	204.75172	-606.14130	-72.01438	158.08171	-882.61035	296.11938	144.57372	-675.46851	52.02207	161.10049	-600.75751	26.49760	169.51282	-549.44208	-25.15094	164.53844	-517.76776	-72.95981	143.33380	-589.52954	207.95398	174.32712	-652.28033	290.97772	156.94370	-615.20612	297.10629	158.44829	-553.43939	242.70604	166.13408	-528.13831	304.00220	146.62164	-763.29694	112.05926	1855.07117	-796.36255	182.29105	184.21361	-731.05463	292.27957	1536.84241	-793.76501	36.87236	174.14021	-820.23273	105.58099	1061.33618	-761.68713	-44.42148	488.99289	-759.11847	-22.13423	207.54892	-876.07831	-78.80435	141.53267	-702.14075	148.28816	576.20007	-698.42334	-58.15715	760.49701	-714.50800	-33.56904	617.22284	-719.98810	-31.81368	570.28796	-698.54156	74.60579	574.15314	-682.28339	-69.84777	876.54773	
